#!OML:ASF E:\emotionWalksFemale\Project 1\Capture day 1\Session 1\Female1.ASF
:FULLY-SPECIFIED
:DEGREES
237
root 7.74633 15.0067 41.8793 179.33 -19.71 -178.652
lowerback 6.81452 2.63735 1.34565
upperback -2.79253 3.63906 -0.0718745
thorax -6.65239 1.72427 -1.27919
lowerneck -9.34994 7.91386 1.14692
upperneck 18.3249 9.58066 3.70044
head 7.01006 4.83621 1.81369
rclavicle 8.36883e-014 8.54774e-015
rhumerus -49.0553 13.6787 -97.4489
rradius 34.0837
rwrist 13.5784
rhand -6.41022 -54.476
rfingers 7.12502
rthumb 19.438 -83.5244
lclavicle 8.36883e-014 8.54774e-015
lhumerus -41.2535 1.20768 84.0459
lradius 34.6914
lwrist -13.423
lhand -5.64836 -31.7175
lfingers 7.12502
lthumb 20.1704 -2.74463
rfemur -3.2178 6.49092 25.3554
rtibia 28.963
rfoot -29.5678 -33.2246
rtoes 9.41729
lfemur -12.1938 -24.8817 -22.9151
ltibia 34.8342
lfoot -26.6984 3.80117
ltoes -33.4511
238
root 7.73957 15.009 41.8764 179.359 -19.5731 -178.627
lowerback 6.75752 2.63203 1.35057
upperback -2.78397 3.6329 -0.044331
thorax -6.61224 1.72227 -1.2491
lowerneck -9.10313 6.95732 0.790939
upperneck 17.8172 8.40795 3.37977
head 6.81744 4.22565 1.64431
rclavicle 4.41675e-014 2.38542e-015
rhumerus -48.9585 13.5664 -97.2751
rradius 34.0604
rwrist 13.8475
rhand -6.45304 -54.1805
rfingers 7.12502
rthumb 19.3968 -83.233
lclavicle 4.41675e-014 2.38542e-015
lhumerus -41.2341 1.04542 84.1774
lradius 34.6848
lwrist -12.9179
lhand -4.48739 -31.4999
lfingers 7.12502
lthumb 21.2859 -2.64877
rfemur -3.25618 6.58537 25.3435
rtibia 28.9455
rfoot -29.5648 -33.2888
rtoes 9.37696
lfemur -12.187 -24.8619 -22.9181
ltibia 34.8277
lfoot -26.7946 4.06917
ltoes -35.1219
239
root 7.73489 15.0084 41.8725 179.36 -19.4391 -178.608
lowerback 6.69873 2.61892 1.29617
upperback -2.74509 3.6115 -0.00595382
thorax -6.54367 1.71632 -1.17184
lowerneck -8.72754 6.40895 0.542674
upperneck 17.3134 7.76063 3.13985
head 6.5986 3.88181 1.52708
rclavicle 4.25275e-014 2.5842e-015
rhumerus -48.8285 13.3865 -97.0201
rradius 34.0327
rwrist 14.3089
rhand -6.59774 -53.8828
rfingers 7.12502
rthumb 19.2577 -82.9493
lclavicle 4.25275e-014 2.5842e-015
lhumerus -41.2153 1.07774 84.2248
lradius 34.6797
lwrist -12.6405
lhand -3.29604 -31.1412
lfingers 7.12502
lthumb 22.4298 -2.42361
rfemur -3.25402 6.70968 25.3472
rtibia 28.9338
rfoot -29.538 -33.0782
rtoes 9.79676
lfemur -12.151 -24.8895 -22.9415
ltibia 34.8304
lfoot -26.7317 4.39985
ltoes -35.1356
240
root 7.73007 15.0052 41.872 179.377 -19.3222 -178.58
lowerback 6.65147 2.59338 1.28852
upperback -2.69835 3.57671 0.00785757
thorax -6.46926 1.70139 -1.14504
lowerneck -8.65047 5.84819 -0.0324433
upperneck 17.0359 7.03962 3.44579
head 6.47144 3.52534 1.64814
rclavicle -3.48494e-014 -3.97569e-015
rhumerus -48.6243 13.2544 -96.8097
rradius 33.9516
rwrist 15.0048
rhand -6.63265 -53.5339
rfingers 7.12502
rthumb 19.2241 -82.6038
lclavicle -3.48494e-014 -3.97569e-015
lhumerus -41.1043 1.20922 84.1964
lradius 34.521
lwrist -12.5313
lhand -2.4416 -30.7803
lfingers 7.12502
lthumb 23.2498 -2.16385
rfemur -3.29744 6.78939 25.3537
rtibia 28.9487
rfoot -29.3549 -32.9493
rtoes 10.2078
lfemur -12.1559 -24.9364 -22.9355
ltibia 34.8204
lfoot -26.6728 4.52614
ltoes -35.4953
241
root 7.72298 15.0052 41.8725 179.422 -19.2089 -178.58
lowerback 6.61291 2.56293 1.27233
upperback -2.67596 3.53485 0.0260563
thorax -6.4266 1.68266 -1.1094
lowerneck -8.67883 5.22798 -0.686102
upperneck 16.9154 6.23668 3.78548
head 6.41759 3.12451 1.7962
rclavicle -1.06226e-014 -6.16232e-015
rhumerus -48.3859 13.0602 -96.5235
rradius 33.7914
rwrist 15.9637
rhand -6.51879 -53.632
rfingers 7.12502
rthumb 19.3336 -82.691
lclavicle -1.06226e-014 -6.16232e-015
lhumerus -41.1188 0.61502 84.5503
lradius 34.6695
lwrist -11.6249
lhand -1.79815 -30.6005
lfingers 7.12502
lthumb 23.867 -2.06337
rfemur -3.39902 6.8948 25.3084
rtibia 29.0095
rfoot -29.276 -33.0726
rtoes 10.2792
lfemur -12.1513 -24.9921 -22.9613
ltibia 34.7794
lfoot -26.6721 4.63284
ltoes -35.51
242
root 7.71649 15.0076 41.8715 179.495 -19.0923 -178.686
lowerback 6.59466 2.52273 1.10397
upperback -2.66789 3.46681 0.0523311
thorax -6.42076 1.6569 -0.979098
lowerneck -8.7935 4.59029 -1.33327
upperneck 16.9759 5.41492 4.04153
head 6.44837 2.70534 1.92386
rclavicle 5.82315e-014 3.37934e-015
rhumerus -48.2828 13.1325 -96.306
rradius 33.7712
rwrist 16.817
rhand -6.64563 -54.3648
rfingers 7.12502
rthumb 19.2116 -83.4359
lclavicle 5.82315e-014 3.37934e-015
lhumerus -41.2073 0.977482 84.4912
lradius 34.7726
lwrist -11.9657
lhand -0.869801 -30.8255
lfingers 7.12502
lthumb 24.757 -2.40765
rfemur -3.48381 6.96753 25.1553
rtibia 29.0783
rfoot -29.3247 -33.1888
rtoes 9.51647
lfemur -12.1239 -25.043 -23.1014
ltibia 34.7303
lfoot -26.6469 4.86903
ltoes -34.9971
243
root 7.71159 15.0062 41.8706 179.49 -19.0137 -178.843
lowerback 6.75668 2.4896 0.914885
upperback -2.66096 3.40554 0.013931
thorax -6.51625 1.63287 -0.914511
lowerneck -8.7281 3.93084 -1.70287
upperneck 16.8498 4.57156 4.03864
head 6.4117 2.2736 1.91469
rclavicle -1.74931e-014 -2.08724e-015
rhumerus -48.1342 12.9012 -95.9405
rradius 33.7592
rwrist 18.2363
rhand -7.14239 -55.0299
rfingers 7.12502
rthumb 18.7339 -84.1478
lclavicle -1.74931e-014 -2.08724e-015
lhumerus -41.3628 0.698757 84.5961
lradius 34.9719
lwrist -11.8055
lhand -0.100843 -30.49
lfingers 7.12502
lthumb 25.4938 -2.17545
rfemur -3.42951 7.00462 24.9779
rtibia 29.1171
rfoot -29.4278 -33.1911
rtoes 8.96313
lfemur -12.0251 -25.1067 -23.3315
ltibia 34.6977
lfoot -26.6149 5.04901
ltoes -34.4813
244
root 7.70628 15.0028 41.8687 179.373 -18.9168 -178.795
lowerback 6.97467 2.47551 0.977566
upperback -2.67093 3.39215 -0.0497799
thorax -6.64469 1.62068 -1.02556
lowerneck -8.46099 3.27272 -1.90287
upperneck 16.5724 3.70025 4.05588
head 6.29947 1.83953 1.87597
rclavicle -2.6339e-015 -6.16232e-015
rhumerus -48.0426 12.421 -95.6673
rradius 33.6763
rwrist 19.4393
rhand -7.91091 -55.3235
rfingers 7.12502
rthumb 17.9946 -84.511
lclavicle -2.6339e-015 -6.16232e-015
lhumerus -41.5379 0.146939 84.7515
lradius 35.0264
lwrist -11.5322
lhand -0.328402 -30.1258
lfingers 7.12502
lthumb 25.2758 -1.78019
rfemur -3.29891 7.06954 25.0315
rtibia 29.1232
rfoot -29.5095 -33.1152
rtoes 9.19138
lfemur -11.8821 -25.1085 -23.3681
ltibia 34.6926
lfoot -26.645 5.11658
ltoes -34.3828
245
root 7.70602 15.0041 41.8753 179.407 -18.9212 -178.618
lowerback 7.12823 2.42707 1.16132
upperback -2.77139 3.34477 -0.0896403
thorax -6.82772 1.5851 -1.17449
lowerneck -8.25375 2.59995 -2.42818
upperneck 16.4245 2.77201 4.51827
head 6.2294 1.38929 2.03373
rclavicle -3.90363e-014 -2.48481e-015
rhumerus -47.8574 11.9732 -95.4705
rradius 33.2833
rwrist 20.1007
rhand -8.45496 -55.3137
rfingers 7.12502
rthumb 17.471 -84.5486
lclavicle -3.90363e-014 -2.48481e-015
lhumerus -41.6976 0.607507 84.4621
lradius 35.0957
lwrist -12.2951
lhand 0.158032 -30.4752
lfingers 7.12502
lthumb 25.7417 -2.19626
rfemur -3.39202 7.05333 25.2078
rtibia 29.0859
rfoot -29.3551 -32.9958
rtoes 9.52865
lfemur -12.0282 -24.9186 -23.1051
ltibia 34.7308
lfoot -26.698 4.86589
ltoes -34.5489
246
root 7.7129 15.0119 41.8896 179.62 -19.0769 -178.484
lowerback 7.26102 2.33252 1.19959
upperback -2.93161 3.2242 -0.0766255
thorax -7.0763 1.5192 -1.17814
lowerneck -7.9593 1.91259 -3.20337
upperneck 16.1798 1.83542 5.14321
head 6.11849 0.93123 2.28392
rclavicle -4.53478e-015 -6.55989e-015
rhumerus -47.7894 11.7161 -95.1627
rradius 33.4162
rwrist 20.9944
rhand -7.42674 -55.6348
rfingers 7.12502
rthumb 18.4604 -84.7788
lclavicle -4.53478e-015 -6.55989e-015
lhumerus -41.7114 0.874941 84.3182
lradius 35.1742
lwrist -12.4557
lhand 1.44149 -30.3703
lfingers 7.12502
lthumb 26.9703 -2.27531
rfemur -3.69935 6.99851 25.3483
rtibia 29.0289
rfoot -29.1791 -33.0458
rtoes 9.37536
lfemur -12.4756 -24.5668 -22.719
ltibia 34.7882
lfoot -26.6899 4.26302
ltoes -34.8905
